<?xml version="1.0" standalone="no"?>
<!DOCTYPE svg PUBLIC "-//W3C//DTD SVG 20010904//EN"
 "http://www.w3.org/TR/2001/REC-SVG-20010904/DTD/svg10.dtd">
<svg version="1.0" xmlns="http://www.w3.org/2000/svg"
 width="1563.000000pt" height="1563.000000pt" viewBox="0 0 1563.000000 1563.000000"
 preserveAspectRatio="xMidYMid meet">

<g transform="translate(0.000000,1563.000000) scale(0.100000,-0.100000)"
fill="#000000" stroke="none">
<path d="M7615 12794 c-139 -12 -326 -40 -450 -69 -38 -9 -95 -21 -125 -27
-30 -5 -59 -14 -64 -19 -6 -5 -17 -9 -26 -9 -9 0 -48 -9 -86 -21 -137 -41
-229 -71 -249 -79 -88 -38 -119 -50 -131 -50 -8 0 -14 -4 -14 -9 0 -5 -12 -12
-26 -15 -87 -22 -516 -262 -687 -385 -330 -236 -609 -498 -875 -822 -43 -52
-141 -192 -242 -344 -80 -120 -208 -365 -270 -515 -28 -69 -58 -139 -66 -157
-8 -17 -14 -37 -14 -45 0 -8 -3 -18 -7 -22 -17 -16 -103 -323 -133 -471 -58
-283 -72 -393 -100 -789 -16 -221 10 -565 69 -899 35 -202 140 -599 164 -623
4 -4 7 -14 7 -23 0 -9 7 -29 15 -45 8 -15 15 -33 15 -40 0 -6 6 -22 13 -36 7
-14 21 -47 31 -75 28 -74 160 -336 229 -455 76 -131 273 -412 368 -525 163
-195 346 -377 493 -490 22 -16 59 -47 84 -68 93 -79 259 -197 386 -274 88 -54
113 -68 281 -159 111 -60 367 -168 510 -216 453 -150 927 -222 1311 -198 160
10 336 31 364 42 8 4 44 11 80 17 83 12 193 38 415 95 276 71 640 225 912 386
59 36 167 104 173 110 3 3 41 30 85 59 111 76 124 86 270 206 216 178 460 437
631 670 70 95 107 150 209 310 71 110 221 420 283 585 57 151 82 221 82 233 0
4 -437 7 -971 7 l-971 0 -103 -97 c-169 -156 -370 -297 -537 -377 -54 -25
-101 -46 -104 -46 -3 0 -20 -6 -37 -14 -119 -52 -305 -99 -494 -126 -83 -12
-409 -17 -420 -7 -9 10 -17 1195 -8 1245 3 17 12 32 20 32 30 0 127 45 156 72
16 16 36 28 44 26 15 -3 114 -90 265 -233 l95 -90 6 -70 c8 -92 40 -157 109
-225 141 -141 353 -141 490 0 80 82 110 147 110 236 l0 70 163 155 c89 86 178
170 198 187 l36 31 50 -33 c55 -36 92 -50 174 -63 46 -7 149 26 211 67 25 16
64 52 87 80 l42 50 368 0 367 0 48 -56 c57 -65 107 -99 190 -126 137 -45 303
38 387 195 30 56 33 70 33 147 0 75 -4 93 -31 150 -30 62 -80 119 -133 152
-34 21 -131 48 -172 48 -50 0 -155 -35 -201 -67 -40 -28 -117 -120 -117 -140
0 -6 -7 -14 -16 -17 -9 -3 -171 -6 -360 -6 l-344 0 -34 53 c-59 91 -114 132
-224 162 -60 17 -67 17 -134 1 -39 -10 -88 -26 -107 -36 -67 -34 -171 -165
-171 -214 0 -14 -130 -146 -228 -231 -25 -22 -67 -60 -92 -85 -25 -25 -78 -73
-117 -108 -68 -59 -72 -61 -89 -45 -27 27 -226 26 -277 -2 l-37 -19 -138 134
c-77 74 -178 171 -225 215 -48 44 -87 83 -87 87 -1 20 -77 132 -111 162 -73
66 -112 81 -224 81 -93 0 -105 -3 -163 -32 -73 -38 -122 -87 -160 -163 -23
-48 -27 -67 -27 -145 0 -84 3 -95 37 -163 l38 -73 -4 -957 c-3 -673 -8 -968
-16 -994 -18 -62 -90 -118 -149 -118 -34 0 -89 26 -115 54 -47 52 -49 73 -52
416 l-3 325 -103 54 c-199 103 -401 254 -554 413 -56 58 -118 130 -138 159
-21 30 -57 83 -81 118 -63 91 -155 268 -195 376 -13 33 -26 69 -31 80 -25 65
-74 301 -89 435 -11 100 -11 342 0 460 26 270 71 443 164 641 20 42 36 79 36
83 0 13 126 214 179 286 60 81 254 281 336 347 149 120 341 229 505 287 58 21
114 42 125 46 55 24 196 55 320 70 44 6 86 12 93 15 11 4 13 49 10 233 -3 256
0 274 69 331 31 26 46 31 90 31 29 0 53 -4 53 -10 0 -5 6 -10 13 -10 20 0 73
-61 86 -99 7 -21 11 -117 11 -256 0 -193 2 -224 16 -236 9 -7 51 -19 93 -25
84 -14 155 -31 186 -45 11 -5 55 -20 98 -34 159 -51 343 -147 558 -291 20 -14
44 -32 55 -42 10 -9 46 -40 79 -67 79 -66 216 -210 278 -290 l50 -65 947 0
c521 0 967 -3 992 -6 50 -7 65 8 49 49 -5 12 -24 67 -41 122 -113 356 -327
771 -536 1041 -221 287 -245 315 -435 504 -158 157 -393 353 -524 436 -16 10
-32 21 -35 25 -3 3 -61 39 -130 79 -69 40 -136 80 -150 90 -43 29 -198 101
-390 182 -14 5 -38 16 -55 23 -37 16 -243 85 -345 115 -41 13 -82 25 -90 28
-17 7 -107 27 -200 47 -36 7 -65 14 -65 15 0 3 -144 27 -235 40 -70 10 -622
21 -705 14z m-87 -393 c39 -20 82 -70 82 -95 0 -8 5 -18 10 -21 6 -3 10 -21
10 -40 0 -19 -4 -37 -10 -40 -5 -3 -10 -15 -10 -25 0 -43 -99 -120 -155 -120
-63 0 -154 81 -157 140 -5 109 11 150 74 191 52 33 104 37 156 10z m-885 -115
c50 -18 76 -42 98 -91 53 -114 -22 -243 -136 -236 -74 4 -113 20 -144 59 -27
32 -31 44 -31 99 0 81 31 135 93 163 51 22 70 23 120 6z m1427 -156 c51 -33
88 -94 97 -160 6 -45 -19 -128 -47 -156 -48 -47 -52 -49 -145 -49 -88 0 -92 1
-132 33 -23 18 -45 43 -49 55 -4 12 -11 25 -16 28 -16 10 -13 124 5 161 16 34
52 72 97 101 16 11 45 17 84 17 49 0 67 -5 106 -30z m-899 -141 c62 -31 126
-100 139 -151 17 -60 6 -131 -27 -184 -29 -46 -96 -94 -132 -94 -11 0 -23 -4
-26 -10 -8 -12 -75 -13 -75 -1 0 5 -17 11 -38 14 -39 7 -88 50 -127 112 -28
44 -26 156 3 211 23 45 84 104 107 104 8 0 15 5 15 10 0 19 118 11 161 -11z
m1974 -164 c437 0 457 -2 561 -51 144 -68 258 -176 312 -294 21 -47 50 -147
54 -190 2 -18 18 -33 63 -58 118 -66 180 -166 180 -292 0 -126 -61 -226 -168
-276 -76 -35 -202 -34 -275 2 -169 84 -231 303 -127 450 41 57 39 78 -12 174
-59 108 -144 173 -263 199 -36 7 -190 12 -450 14 l-395 2 -33 23 c-18 13 -41
41 -52 62 -24 48 -27 132 -5 150 8 7 15 18 15 25 0 32 106 78 155 67 17 -3
215 -7 440 -7z m-3108 -291 c49 -17 62 -28 88 -76 21 -39 26 -1011 5 -1073
-30 -91 -128 -131 -217 -88 -35 16 -72 58 -82 91 -8 26 -7 1014 1 1041 16 53
60 97 108 106 13 2 25 7 28 10 8 8 17 6 69 -11z m733 -315 c19 -12 49 -38 67
-58 47 -52 79 -160 53 -176 -5 -3 -10 -16 -10 -29 0 -28 -60 -100 -102 -120
-75 -38 -194 -6 -252 66 -25 33 -30 48 -34 116 -5 90 6 119 64 176 39 38 53
43 129 45 35 1 61 -5 85 -20z m2405 -44 c54 -19 83 -37 111 -67 42 -44 52 -66
60 -129 17 -142 -73 -251 -206 -252 -63 0 -105 18 -162 72 -66 60 -91 148 -64
228 21 63 51 99 111 133 50 27 101 33 150 15z m1711 -374 c47 -23 84 -57 84
-76 0 -8 5 -15 10 -15 15 0 12 -124 -4 -154 -32 -63 -118 -97 -193 -77 -115
31 -156 200 -69 282 66 62 107 71 172 40z m-5585 -28 c43 -20 99 -80 99 -104
0 -10 5 -21 10 -24 16 -10 11 -68 -10 -112 -33 -70 -109 -108 -188 -96 -47 8
-122 79 -122 116 0 15 -4 27 -10 27 -12 0 -13 47 -1 54 4 3 11 18 14 33 7 37
63 93 99 100 16 3 31 10 34 14 8 14 38 11 75 -8z m-546 -474 c45 -21 95 -75
95 -103 0 -9 5 -25 12 -36 9 -14 9 -25 1 -42 -5 -13 -18 -40 -27 -61 -9 -21
-30 -46 -46 -55 -16 -9 -30 -20 -30 -24 0 -5 -27 -8 -60 -8 -90 0 -138 36
-165 124 -19 62 -7 111 37 162 56 64 111 77 183 43z m576 -193 c76 -52 70 81
71 -1616 l1 -1519 -23 -34 c-12 -18 -36 -41 -52 -50 -65 -37 -168 -8 -207 59
-24 40 -42 150 -30 180 4 11 8 667 8 1460 1 1545 -1 1473 48 1516 25 22 41 26
98 27 38 1 59 -5 86 -23z m-624 -882 c60 -48 83 -97 83 -176 0 -88 -22 -142
-73 -179 -22 -16 -48 -29 -58 -29 -10 0 -29 -5 -43 -11 -59 -27 -184 44 -228
129 -39 73 -16 182 49 244 51 48 82 59 160 56 63 -3 76 -7 110 -34z m25 -991
c2 -5 16 -15 33 -23 52 -27 74 -71 70 -143 -5 -120 -40 -161 -140 -164 -44 -1
-70 4 -96 19 -33 19 -65 61 -61 81 1 4 -3 7 -8 7 -18 0 -12 123 7 150 27 39
39 48 67 56 14 3 26 10 26 15 0 11 97 12 102 2z m1293 -554 c72 -38 118 -102
130 -181 26 -173 -159 -300 -322 -221 -160 77 -159 324 2 407 44 23 141 21
190 -5z m-1306 -10 c37 -8 57 -19 80 -46 17 -20 32 -39 32 -42 32 -145 -30
-251 -145 -251 -56 0 -114 33 -145 83 -16 26 -21 51 -21 101 0 63 2 69 38 107
22 24 51 44 72 49 19 4 36 8 37 9 1 1 24 -4 52 -10z m5864 -564 c67 -33 127
-94 159 -162 32 -66 31 -186 -2 -257 -31 -69 -100 -139 -163 -167 -78 -34
-183 -33 -259 4 -50 25 -72 44 -121 107 -7 8 -23 37 -36 64 -21 42 -23 58 -19
139 4 83 8 97 37 144 92 148 258 200 404 128z m-3760 -186 c55 -28 94 -65 120
-114 29 -56 29 -164 -1 -221 -24 -48 -75 -94 -102 -94 -10 0 -22 -5 -25 -10
-8 -13 -112 -10 -145 5 -50 22 -90 50 -96 68 -3 9 -9 17 -14 17 -15 0 -40 80
-40 128 0 174 162 292 303 221z m2866 -76 c51 -30 75 -52 106 -98 l40 -60 0
-121 c0 -88 -4 -125 -14 -137 -9 -11 -10 -21 -4 -29 18 -23 52 -132 64 -200
20 -121 -29 -325 -101 -422 -53 -72 -149 -158 -208 -189 -118 -62 -146 -65
-562 -68 -423 -3 -418 -4 -465 71 -19 31 -25 53 -25 98 0 55 2 60 45 102 l46
45 340 1 c248 0 342 3 351 12 7 7 20 12 31 12 58 0 173 90 197 154 7 17 16 40
21 51 6 11 9 58 7 105 l-3 84 -55 12 c-71 15 -85 21 -142 61 -51 37 -104 112
-121 171 -31 113 12 252 100 318 83 63 123 75 222 69 52 -4 78 -12 130 -42z
m-3591 -229 c55 -45 85 -107 78 -167 -10 -92 -61 -147 -145 -155 -70 -6 -112
4 -148 37 -46 42 -63 82 -63 148 0 59 15 94 52 121 9 7 23 19 31 26 19 20 45
25 105 22 40 -2 61 -9 90 -32z m2559 -78 c63 -32 99 -117 80 -188 -14 -51 -32
-77 -71 -102 -27 -17 -56 -18 -372 -19 l-344 -1 -31 34 c-43 49 -57 78 -57
127 -1 64 30 119 83 145 43 23 51 23 363 22 271 -1 323 -4 349 -18z m-3116
-36 c39 -31 79 -105 79 -142 0 -38 -23 -92 -54 -128 -26 -32 -33 -35 -98 -38
-61 -4 -73 -1 -109 23 -47 31 -72 80 -71 145 0 105 60 168 162 169 47 1 61 -3
91 -29z m658 -543 c14 -27 74 -73 130 -100 31 -15 111 -17 874 -17 920 0 883
2 926 -59 31 -43 45 -108 30 -145 -22 -55 -51 -87 -93 -104 -37 -16 -115 -17
-876 -12 l-835 5 -82 32 c-45 17 -107 48 -138 68 -73 49 -196 172 -218 218
-10 20 -22 39 -27 42 -6 3 -10 14 -10 23 0 9 -7 29 -14 45 l-15 27 77 1 c42 1
111 5 152 8 85 7 100 3 119 -32z m1830 -705 c46 -45 55 -72 49 -148 -4 -45
-11 -61 -37 -88 -18 -19 -53 -40 -79 -48 -40 -13 -52 -13 -88 -1 -23 8 -57 31
-75 51 -31 33 -34 44 -37 108 -3 55 0 74 12 87 9 8 16 20 16 25 0 23 75 51
137 51 60 1 65 -1 102 -37z"/>
<path d="M7796 10120 c-92 -35 -175 -111 -205 -186 -12 -29 -14 -30 -112 -43
-216 -27 -364 -104 -491 -255 -59 -71 -122 -186 -155 -286 -16 -48 -18 -99
-20 -425 -2 -203 -5 -379 -8 -391 -2 -11 -27 -35 -54 -52 -61 -40 -103 -87
-138 -155 -23 -44 -27 -65 -28 -137 0 -77 3 -92 33 -152 38 -77 89 -126 177
-170 50 -24 73 -29 135 -30 67 -1 82 3 145 35 96 50 145 97 180 177 29 64 29
230 0 286 -28 55 -34 61 -97 124 l-58 57 0 329 c0 401 10 455 100 569 82 104
177 155 302 162 l87 6 63 -53 c88 -73 152 -100 243 -100 98 0 167 28 256 102
l45 38 171 0 171 0 26 -44 c60 -103 193 -186 297 -186 92 0 212 58 273 131 15
18 39 55 54 83 23 44 27 63 27 137 0 74 -4 93 -28 142 -79 154 -212 229 -371
206 -100 -14 -159 -49 -225 -136 l-33 -43 -149 0 -148 0 -31 63 c-86 173 -272
258 -434 197z"/>
<path d="M10360 3860 l0 -50 55 0 55 0 0 50 0 50 -55 0 -55 0 0 -50z"/>
<path d="M2475 3760 c-25 -49 -25 -51 -25 -315 0 -264 0 -266 25 -315 l25 -50
209 0 209 0 26 50 c19 36 26 65 26 105 l0 56 -52 -3 -53 -3 -3 -54 -3 -54
-145 5 c-79 3 -146 7 -149 9 -2 3 -5 118 -7 257 l-3 252 153 0 152 0 0 -50 0
-50 55 0 55 0 0 52 c0 38 -8 67 -27 105 l-28 53 -207 0 -208 0 -25 -50z"/>
<path d="M6117 3755 c-18 -38 -27 -71 -27 -105 l0 -50 -50 0 c-47 0 -50 -2
-50 -25 0 -23 3 -25 50 -25 l50 0 0 -180 c0 -175 1 -181 27 -235 l27 -55 57 0
56 0 21 49 c23 56 19 61 -44 61 l-34 0 0 180 0 180 50 0 c47 0 50 2 50 25 0
23 -3 25 -50 25 l-50 0 0 105 0 105 -28 0 c-24 0 -32 -8 -55 -55z"/>
<path d="M7785 3760 c-22 -43 -25 -62 -25 -154 0 -94 3 -111 27 -161 l27 -55
177 0 177 0 7 -83 c11 -132 24 -122 -149 -121 -164 1 -166 2 -166 67 l0 37
-50 0 -50 0 0 -55 c0 -40 7 -70 25 -105 l25 -50 210 0 210 0 25 50 c22 44 25
62 25 157 0 98 -2 112 -27 160 l-28 53 -177 0 -177 0 -3 98 c-2 53 -3 99 -2
102 1 3 70 4 153 2 l151 -3 0 -27 c0 -62 9 -72 61 -72 l49 0 0 55 c0 40 -7 70
-25 105 l-25 50 -210 0 -210 0 -25 -50z"/>
<path d="M11930 3760 c0 -48 1 -50 28 -50 15 0 37 -3 50 -6 l22 -6 0 -259 0
-259 -50 0 -50 0 0 -50 0 -50 315 0 315 0 0 94 c0 51 -3 121 -6 155 l-7 61
-48 0 -48 0 -3 -102 -3 -103 -70 -3 c-38 -2 -107 0 -152 3 l-83 7 0 99 0 99
50 0 50 0 0 -50 0 -50 55 0 55 0 0 94 c0 51 -3 121 -6 155 l-7 61 -48 0 -49 0
0 -50 0 -50 -50 0 -50 0 0 100 0 100 155 0 155 0 0 -99 0 -99 48 -4 c26 -3 50
-3 55 -1 9 5 9 167 1 252 l-7 61 -308 0 -309 0 0 -50z"/>
<path d="M12685 3760 c-25 -49 -25 -51 -25 -315 0 -264 0 -266 25 -315 l25
-50 209 0 209 0 26 50 c19 36 26 65 26 105 l0 56 -52 -3 -53 -3 -3 -54 -3 -54
-145 5 c-79 3 -146 7 -149 9 -2 3 -5 118 -7 257 l-3 252 153 0 152 0 0 -50 0
-50 55 0 55 0 0 52 c0 38 -8 67 -27 105 l-28 53 -207 0 -208 0 -25 -50z"/>
<path d="M3097 3545 c-26 -53 -27 -63 -27 -205 0 -142 1 -152 27 -205 l27 -55
157 0 157 0 26 50 c25 47 26 57 26 210 0 152 -1 163 -25 210 l-25 50 -158 0
-158 0 -27 -55z m288 -138 c4 -45 5 -113 3 -152 -4 -82 -1 -80 -125 -70 l-83
7 0 151 0 152 99 -3 99 -3 7 -82z"/>
<path d="M3590 3550 l0 -50 38 0 c65 0 65 -2 66 -167 l1 -148 -52 -3 -53 -3 0
-50 0 -49 160 0 160 0 0 49 c0 53 -9 61 -77 61 -33 0 -33 0 -32 48 0 36 13 72
52 151 29 57 55 103 60 102 4 0 27 -1 52 -1 l45 0 0 -205 0 -205 105 0 105 0
0 49 c0 54 -8 61 -66 61 l-34 0 0 49 c0 37 11 73 49 152 l48 104 52 -3 51 -4
0 -204 0 -204 105 0 105 0 0 49 c0 54 -8 61 -66 61 l-34 0 0 152 c0 147 -1
155 -27 205 l-28 53 -106 0 -105 0 -22 -46 c-12 -25 -27 -42 -32 -39 -6 4 -19
24 -30 46 l-20 39 -105 0 -105 0 -24 -47 -25 -48 -1 48 0 47 -105 0 -105 0 0
-50z"/>
<path d="M4630 3550 l0 -50 39 0 c76 0 71 23 71 -321 l0 -309 -55 0 -55 0 0
-49 0 -48 68 -6 c37 -4 109 -7 160 -7 l92 0 0 55 0 55 -50 0 -50 0 0 105 0
105 128 0 128 0 27 55 c26 53 27 62 27 208 0 146 -1 154 -27 204 l-28 53 -106
0 -106 0 -18 -40 c-10 -22 -22 -40 -27 -40 -4 0 -8 18 -8 40 l0 40 -105 0
-105 0 0 -50z m420 -216 l0 -154 -39 0 c-21 0 -66 3 -100 6 l-61 7 0 47 c0 36
12 72 49 151 l49 104 51 -3 51 -4 0 -154z"/>
<path d="M5260 3550 l0 -50 34 0 c67 0 66 3 66 -161 0 -141 1 -151 27 -204
l27 -55 108 0 107 0 20 45 c11 25 22 45 24 45 3 0 2 -20 -1 -45 l-5 -45 112 0
111 0 0 49 c0 53 -9 61 -77 61 l-33 0 0 205 0 205 -105 0 -105 0 0 -50 0 -50
38 0 c50 0 58 -8 65 -59 5 -39 0 -56 -49 -153 -42 -83 -59 -108 -70 -104 -9 3
-31 6 -50 6 l-34 0 0 205 0 205 -105 0 -105 0 0 -50z"/>
<path d="M6426 3541 c-24 -54 -26 -69 -26 -201 0 -132 2 -147 26 -201 l27 -59
161 0 161 0 22 50 22 50 -93 0 c-51 0 -121 3 -155 6 l-61 7 0 48 0 49 161 0
161 0 -4 108 c-4 95 -7 112 -32 155 l-28 47 -157 0 -158 0 -27 -59z m280 -54
c1 -1 4 -23 7 -49 l7 -48 -44 0 c-24 0 -71 3 -105 6 l-61 7 0 46 0 46 97 -3
c54 -2 98 -5 99 -5z"/>
<path d="M6930 3550 l0 -50 34 0 c67 0 66 4 66 -166 l0 -154 -50 0 -50 0 0
-50 0 -50 155 0 155 0 0 49 c0 54 -8 61 -66 61 l-34 0 0 49 c0 62 93 266 117
257 8 -3 30 -6 48 -6 33 0 34 -1 37 -47 l3 -48 53 -3 52 -3 0 53 c0 38 -8 67
-27 105 l-28 53 -106 0 -105 0 -21 -42 -22 -43 0 43 -1 42 -105 0 -105 0 0
-50z"/>
<path d="M8406 3541 c-24 -54 -26 -69 -26 -201 0 -132 2 -147 26 -201 l27 -59
161 0 161 0 22 50 22 50 -93 0 c-51 0 -121 3 -155 6 l-61 7 0 48 0 49 161 0
161 0 -4 108 c-4 95 -7 112 -32 155 l-28 47 -157 0 -158 0 -27 -59z m280 -54
c1 -1 4 -23 7 -49 l7 -48 -44 0 c-24 0 -71 3 -105 6 l-61 7 0 46 0 46 97 -3
c54 -2 98 -5 99 -5z"/>
<path d="M8910 3550 l0 -50 34 0 c67 0 66 4 66 -166 l0 -154 -50 0 -50 0 0
-50 0 -50 155 0 155 0 0 49 c0 54 -8 61 -66 61 l-34 0 0 49 c0 37 11 72 49
152 l49 104 51 -3 50 -4 3 -46 3 -47 53 -3 52 -3 0 53 c0 38 -8 67 -27 105
l-28 53 -106 0 -105 0 -21 -42 -22 -43 0 43 -1 42 -105 0 -105 0 0 -50z"/>
<path d="M9530 3550 l0 -50 38 0 c59 0 62 -6 69 -121 6 -99 8 -109 55 -201
l48 -98 108 1 107 1 53 106 52 107 0 98 0 97 50 0 50 0 0 55 0 55 -155 0 -155
0 0 -50 0 -50 34 0 c65 0 66 -2 66 -111 0 -86 -3 -106 -25 -149 -30 -60 -36
-64 -89 -56 -39 6 -44 11 -69 62 -26 52 -27 62 -27 204 l0 150 -105 0 -105 0
0 -50z"/>
<path d="M10260 3550 l0 -50 34 0 c67 0 66 4 66 -166 l0 -154 -50 0 -50 0 0
-50 0 -50 159 0 159 0 -6 48 c-6 54 -13 62 -64 62 l-38 0 0 205 0 205 -105 0
-105 0 0 -50z"/>
<path d="M10705 3550 c-24 -47 -25 -58 -25 -210 0 -152 1 -163 25 -210 l25
-50 158 0 157 0 26 53 c22 43 26 63 21 105 l-5 52 -48 0 -49 0 0 -57 0 -56
-96 6 c-54 4 -98 8 -99 9 -2 2 -5 72 -7 156 -2 124 -1 151 10 147 8 -3 54 -5
103 -5 l89 0 0 -50 0 -50 55 0 55 0 0 50 c0 34 -9 67 -27 105 l-27 55 -158 0
-158 0 -25 -50z"/>
<path d="M11225 3550 c-24 -47 -25 -58 -25 -210 0 -152 1 -163 25 -210 l25
-50 160 0 159 0 21 46 c11 26 20 48 20 50 0 2 -44 4 -97 4 -54 0 -122 3 -150
6 l-53 7 0 48 0 49 155 0 155 0 0 102 c0 93 -3 108 -27 155 l-28 53 -157 0
-158 0 -25 -50z m285 -111 l0 -49 -47 0 c-27 0 -71 3 -100 6 l-51 7 -4 44 c-2
24 -2 45 -2 46 1 1 48 1 103 -1 l101 -3 0 -50z"/>
<path d="M7105 2010 c-9 -18 -15 -56 -15 -100 0 -44 6 -82 15 -100 l16 -30
109 0 109 0 6 -54 c4 -30 4 -59 0 -65 -7 -12 -109 -13 -160 -2 -23 5 -31 12
-33 34 -3 23 -8 27 -33 27 -27 0 -29 -3 -29 -35 0 -20 7 -49 15 -65 l16 -30
129 0 129 0 16 30 c9 18 15 56 15 100 0 44 -6 82 -15 100 l-16 30 -109 0 -110
0 0 43 c0 23 -3 52 -6 65 -6 22 -5 22 90 22 88 0 96 -2 96 -19 0 -37 12 -51
41 -51 27 0 29 3 29 35 0 20 -7 49 -15 65 l-16 30 -129 0 -129 0 -16 -30z"/>
<path d="M7670 2011 c0 -26 4 -30 30 -33 l30 -3 -30 -63 c-27 -58 -30 -73 -30
-163 l0 -99 -35 0 c-32 0 -35 -2 -35 -30 l0 -30 101 0 100 0 -3 33 c-2 27 -8
33 -30 35 -24 3 -28 8 -28 33 l0 29 96 0 95 0 -3 -32 c-3 -29 -7 -33 -35 -36
-29 -3 -33 -7 -33 -33 l0 -29 101 0 100 0 -3 33 c-2 27 -8 33 -30 35 l-28 3 0
90 c0 87 -1 92 -50 189 l-50 100 -115 0 -115 0 0 -29z m225 -94 c22 -41 35
-77 35 -100 l0 -37 -57 0 c-32 0 -75 3 -95 6 -52 9 -54 40 -9 127 30 58 39 67
63 67 23 0 32 -10 63 -63z"/>
<path d="M8267 2005 c-24 -51 -23 -151 3 -192 l20 -33 110 0 110 0 0 -65 0
-65 -57 0 c-32 0 -75 3 -95 6 -34 6 -38 10 -38 35 0 26 -3 29 -35 29 -32 0
-35 -2 -35 -30 0 -16 8 -45 17 -65 l17 -35 131 0 131 0 17 35 c10 21 17 60 17
95 0 35 -7 74 -17 95 l-17 35 -113 0 -113 0 0 65 0 65 95 0 95 0 0 -35 c0 -33
2 -35 35 -35 33 0 35 2 35 34 0 19 -8 48 -17 65 l-18 31 -131 0 -130 0 -17
-35z"/>
<path d="M4710 1785 l0 -65 363 0 c200 0 601 3 891 7 l527 6 -3 56 -3 56 -887
3 -888 2 0 -65z"/>
<path d="M9220 1785 l0 -65 885 0 885 0 0 65 0 65 -885 0 -885 0 0 -65z"/>
<path d="M7480 1620 c0 -27 3 -30 33 -30 32 0 33 2 29 30 -4 25 -9 30 -33 30
-26 0 -29 -4 -29 -30z"/>
<path d="M8120 1620 c0 -28 3 -30 35 -30 32 0 35 2 35 30 0 28 -3 30 -35 30
-32 0 -35 -2 -35 -30z"/>
</g>
</svg>