<?xml version="1.0" standalone="no"?>
<!DOCTYPE svg PUBLIC "-//W3C//DTD SVG 20010904//EN"
 "http://www.w3.org/TR/2001/REC-SVG-20010904/DTD/svg10.dtd">
<svg version="1.0" xmlns="http://www.w3.org/2000/svg"
 width="500.000000pt" height="500.000000pt" viewBox="0 0 500.000000 500.000000"
 preserveAspectRatio="xMidYMid meet">

<g transform="translate(0.000000,500.000000) scale(0.100000,-0.100000)"
fill="#000000" stroke="none">
<path d="M2420 4715 c-8 -2 -62 -9 -120 -15 -119 -13 -367 -75 -480 -119 -554
-214 -1045 -689 -1265 -1221 -89 -217 -138 -429 -162 -700 -24 -277 -4 -522
67 -800 156 -618 577 -1135 1159 -1425 71 -36 165 -78 208 -94 119 -44 344
-100 467 -117 129 -18 352 -21 446 -6 36 6 85 14 110 17 62 8 312 71 385 97
114 40 269 111 364 166 384 221 684 536 876 919 66 132 138 317 128 327 -4 3
-249 6 -545 6 l-539 0 -87 -76 c-183 -161 -352 -248 -559 -288 -91 -17 -293
-30 -309 -19 -15 11 -27 400 -18 581 l7 140 36 11 c20 6 47 20 60 32 l23 21
31 -29 c18 -16 60 -56 95 -89 35 -32 68 -60 73 -62 5 -2 9 -19 9 -38 0 -122
121 -218 243 -192 83 17 157 105 157 186 0 37 7 46 110 146 l111 106 42 -24
c23 -13 55 -27 71 -30 46 -11 124 21 173 71 l43 45 206 -3 207 -3 21 -29 c32
-43 101 -80 151 -80 60 0 123 38 163 98 31 46 34 55 30 111 -3 46 -11 72 -32
104 -69 105 -238 106 -312 1 l-29 -41 -207 0 c-132 0 -208 4 -208 10 0 5 -16
28 -36 50 -95 105 -275 65 -324 -72 -8 -22 -58 -75 -151 -160 -138 -125 -140
-126 -167 -112 -35 18 -96 18 -132 -1 l-29 -15 -87 82 c-144 138 -156 151
-191 205 -78 122 -243 131 -330 17 -38 -50 -44 -142 -14 -202 21 -40 21 -52
21 -580 0 -369 -4 -549 -11 -571 -11 -31 -52 -61 -83 -61 -31 0 -66 24 -81 55
-12 26 -15 71 -15 212 l0 179 -62 33 c-149 79 -290 195 -379 313 -147 195
-219 392 -236 645 -7 107 9 272 38 387 68 273 252 514 505 663 96 57 293 126
399 140 l60 8 1 120 c0 153 -1 148 30 184 34 41 72 41 116 2 l33 -29 3 -145 3
-145 44 -7 c118 -17 331 -108 468 -199 69 -46 214 -182 251 -235 l29 -41 564
0 565 0 -7 33 c-4 17 -27 84 -50 147 -191 522 -641 999 -1147 1216 -195 84
-399 145 -568 170 -90 13 -398 27 -430 19z m-62 -231 c54 -37 53 -132 -2 -165
-42 -25 -69 -24 -104 6 -34 29 -44 63 -30 111 15 56 88 82 136 48z m-477 -83
c23 -23 29 -38 29 -71 0 -74 -69 -112 -139 -75 -34 17 -41 33 -41 86 0 84 91
120 151 60z m773 -62 c53 -42 69 -104 41 -159 -20 -38 -43 -50 -97 -50 -53 0
-85 21 -104 67 -21 49 -9 96 32 133 42 36 89 40 128 9z m-494 -90 c96 -54 86
-196 -15 -229 -109 -36 -199 55 -163 165 15 46 66 85 111 85 16 0 46 -10 67
-21z m1420 -113 c112 -59 172 -130 196 -234 7 -31 18 -58 23 -60 23 -8 76 -49
95 -75 14 -19 21 -46 23 -90 7 -112 -58 -182 -167 -181 -72 1 -114 24 -151 82
-38 59 -39 119 -4 180 23 41 24 46 10 78 -24 58 -64 101 -114 123 -44 18 -69
20 -277 22 -241 1 -271 6 -294 48 -18 35 -12 86 15 115 l25 27 283 -3 282 -3
55 -29z m-2065 -140 c53 -22 57 -51 53 -369 l-3 -279 -33 -29 c-36 -32 -60
-36 -101 -14 -49 25 -52 47 -49 357 3 270 4 287 23 308 18 20 48 38 68 39 4 1
23 -5 42 -13z m418 -186 c49 -42 63 -81 48 -130 -20 -68 -84 -97 -155 -70 -56
21 -82 110 -51 170 33 63 105 77 158 30z m1378 -26 c40 -20 73 -92 63 -137
-10 -48 -31 -74 -74 -91 -50 -20 -95 -7 -140 39 -30 30 -34 41 -34 86 0 47 4
55 37 85 42 39 96 45 148 18z m939 -199 c37 -19 50 -43 50 -95 0 -118 -161
-121 -177 -3 -5 39 -2 46 30 78 39 39 54 42 97 20z m-3150 -21 c40 -27 50 -45
50 -89 0 -100 -138 -130 -176 -39 -20 48 -4 98 40 125 38 23 54 24 86 3z
m-293 -278 c23 -20 28 -32 28 -71 0 -39 -5 -51 -28 -71 -37 -31 -87 -32 -123
-1 -23 20 -27 32 -27 72 0 40 4 52 27 72 36 31 86 30 123 -1z m294 -86 c50
-27 49 -6 49 -925 l0 -856 -25 -24 c-32 -33 -84 -33 -122 -1 l-28 24 0 844 c0
463 3 860 6 881 4 21 15 44 25 52 22 17 68 19 95 5z m-361 -495 c54 -28 77
-115 47 -175 -29 -58 -119 -74 -175 -30 -52 42 -65 95 -37 151 32 60 106 85
165 54z m61 -594 c77 -78 -2 -194 -106 -155 -38 15 -60 112 -32 146 36 46 97
50 138 9z m704 -292 c44 -26 65 -65 65 -120 0 -35 -6 -48 -39 -80 -32 -32 -46
-39 -77 -39 -22 0 -53 9 -70 19 -32 20 -64 74 -64 110 0 40 28 90 62 111 42
26 78 25 123 -1z m-706 -25 c26 -21 31 -33 31 -68 0 -60 -34 -96 -90 -96 -58
0 -90 33 -90 95 0 88 82 126 149 69z m3270 -294 c123 -62 143 -217 41 -304
-83 -69 -197 -52 -257 38 -100 152 58 347 216 266z m-2126 -104 c71 -30 106
-115 77 -186 -35 -84 -158 -92 -219 -14 -45 58 -16 170 52 199 41 18 50 18 90
1z m1613 -40 c79 -37 113 -110 94 -206 -7 -36 -4 -57 12 -105 38 -113 8 -241
-77 -334 -88 -94 -118 -103 -366 -109 -246 -6 -273 -2 -294 38 -25 48 -19 94
15 123 30 26 31 26 172 20 95 -4 168 -1 218 7 67 11 79 17 118 55 41 41 42 44
42 107 l0 64 -53 17 c-62 20 -88 44 -117 110 -25 56 -20 99 17 155 28 41 42
52 93 69 51 17 69 15 126 -11z m-1999 -151 c27 -31 31 -99 8 -132 -17 -24 -71
-39 -108 -29 -13 3 -36 18 -50 32 -46 45 -31 130 27 155 37 16 99 3 123 -26z
m1426 -26 c47 -21 63 -107 29 -149 -18 -22 -23 -23 -226 -23 l-208 -1 -19 24
c-21 29 -25 98 -6 122 6 8 21 20 32 26 27 15 366 16 398 1z m-1765 -19 c85
-52 53 -180 -45 -180 -46 0 -93 45 -93 90 0 61 33 98 100 109 3 1 20 -8 38
-19z m384 -315 c44 -56 37 -55 553 -55 531 0 523 1 545 -65 9 -28 9 -43 0 -66
-25 -60 -23 -60 -543 -57 -452 3 -474 4 -523 24 -57 24 -130 76 -167 120 -20
24 -67 106 -67 116 0 2 41 4 91 6 87 3 91 2 111 -23z m1042 -407 c51 -73 -33
-181 -109 -142 -40 21 -54 44 -55 90 0 54 18 76 71 84 50 7 71 0 93 -32z"/>
<path d="M2490 3199 c-42 -17 -86 -56 -100 -88 -9 -24 -19 -31 -39 -31 -39 0
-139 -28 -188 -52 -97 -48 -188 -172 -212 -286 -6 -29 -11 -140 -11 -246 l0
-194 -45 -37 c-25 -20 -52 -49 -59 -64 -58 -110 1 -242 122 -277 51 -15 60
-15 106 0 157 49 194 233 70 346 l-36 32 4 197 c3 178 6 201 26 246 30 65 66
102 127 131 71 34 119 32 163 -7 87 -77 179 -78 275 -5 31 24 42 26 129 26
l95 0 27 -39 c32 -46 110 -91 157 -91 105 1 199 96 199 201 0 48 -5 65 -33
105 -56 82 -156 116 -240 80 -18 -7 -50 -32 -71 -56 l-39 -43 -60 7 c-33 3
-70 6 -82 6 -16 0 -25 8 -29 24 -9 37 -56 87 -101 107 -43 20 -115 24 -155 8z"/>
</g>
</svg>
